P3
50 50
255
67 70 50
67 70 51
67 70 51
67 70 51
68 71 52
67 70 51
67 70 51
66 69 50
66 69 49
67 70 50
67 70 49
67 70 49
67 70 49
66 71 49
66 71 49
66 71 49
66 71 48
66 71 48
66 71 47
65 70 47
65 70 47
66 70 47
67 71 48
67 71 48
69 73 50
71 74 52
72 76 53
73 77 54
76 80 57
79 83 60
81 85 62
84 88 65
87 91 68
90 94 71
91 95 72
92 96 73
93 96 74
94 97 75
95 97 75
97 97 76
98 97 76
98 98 76
98 98 77
99 98 77
98 98 76
98 98 77
98 97 76
98 97 75
97 98 74
98 98 74
66 69 50
66 69 50
66 69 50
66 69 50
66 69 50
66 69 50
66 69 50
65 68 49
66 69 50
65 68 49
66 69 47
66 69 48
65 68 47
64 69 47
64 69 47
65 70 48
65 70 48
65 70 48
65 70 48
65 70 47
66 70 47
67 71 48
68 72 49
69 73 50
70 74 51
72 76 53
73 77 54
75 79 56
78 83 59
82 86 63
85 89 66
87 91 68
90 94 71
92 96 73
92 96 73
93 97 74
94 98 75
95 99 76
97 99 77
98 100 78
98 100 78
99 101 79
99 101 79
99 101 79
99 101 79
99 101 79
99 101 77
99 101 77
98 100 76
98 100 76
65 67 49
65 67 49
65 67 49
65 67 49
65 68 49
65 68 49
65 68 49
64 67 48
64 67 48
64 67 47
64 67 46
64 67 46
64 67 46
63 68 46
64 69 47
64 69 47
65 70 48
65 70 48
65 70 48
65 70 48
66 70 48
68 71 49
69 72 50
70 73 51
71 75 53
74 78 56
75 79 57
78 81 59
81 84 62
85 89 66
87 91 68
89 94 70
92 96 72
93 98 74
95 99 76
96 100 77
97 101 78
98 102 79
100 102 80
100 102 80
101 103 81
101 103 81
101 103 81
101 103 81
101 103 81
101 103 79
101 103 78
101 103 79
100 102 78
100 102 78
64 65 47
64 65 47
64 65 47
63 65 47
62 65 46
62 65 46
63 66 47
63 66 47
63 66 47
62 65 46
62 65 46
62 65 46
63 66 45
64 68 46
64 69 47
64 69 47
63 68 46
63 68 46
63 68 46
63 68 46
64 69 47
67 71 49
68 72 51
70 74 52
73 77 55
75 79 58
77 81 59
79 83 62
82 86 65
86 90 68
88 92 70
90 94 72
92 96 74
94 97 75
96 99 77
98 101 79
99 102 80
100 103 81
102 104 82
102 104 82
102 104 82
102 104 82
102 104 82
102 104 81
102 104 80
102 104 80
102 104 80
101 103 79
101 103 79
101 103 79
63 64 46
63 64 46
63 64 46
61 64 45
61 64 45
61 64 45
62 65 45
61 64 45
61 64 45
61 64 45
61 64 45
62 65 46
63 66 46
63 67 47
62 67 46
62 67 45
62 67 45
62 67 45
63 68 46
63 68 46
65 70 48
67 72 51
69 74 53
71 76 56
74 79 59
76 82 61
79 84 63
81 86 65
84 89 68
87 90 70
89 92 71
91 93 73
93 95 75
94 97 76
95 98 77
97 100 79
98 101 80
99 101 80
100 102 80
100 102 80
101 103 81
101 103 80
101 104 80
102 104 80
102 104 80
102 104 80
102 104 80
102 104 80
102 104 80
102 104 80
63 64 46
62 63 45
62 63 45
61 63 45
60 63 44
60 63 44
60 63 44
60 63 44
60 63 44
59 62 43
60 63 44
61 64 45
62 65 46
61 65 46
60 65 43
60 65 43
59 64 43
60 65 43
62 67 45
64 69 47
65 70 49
68 73 53
70 75 55
72 77 57
75 80 61
78 83 63
79 84 64
81 86 67
84 89 70
88 92 71
90 92 71
91 94 73
93 96 75
94 97 76
95 98 77
96 99 78
97 100 79
98 101 79
99 101 79
99 101 79
100 102 78
100 102 78
101 103 78
101 103 79
101 103 79
101 103 79
102 104 80
103 105 81
102 105 80
103 106 79
61 63 46
61 62 46
61 61 45
60 62 45
59 62 45
59 62 44
59 62 44
58 61 44
58 61 42
58 61 42
58 61 42
58 61 42
59 62 42
57 62 42
57 62 42
57 62 42
58 63 41
60 65 43
63 68 46
65 70 48
67 72 50
68 73 53
70 75 55
72 77 57
75 80 60
77 82 62
79 84 64
81 86 66
84 89 69
87 91 70
90 93 72
91 94 73
93 96 75
94 97 76
95 98 77
96 99 78
97 100 78
97 101 78
98 100 78
98 100 76
99 101 77
99 102 78
100 102 78
100 103 78
101 103 79
101 103 79
102 104 80
103 105 80
103 106 79
104 107 80
60 61 45
60 61 45
60 60 45
58 61 44
57 60 43
57 60 43
57 60 43
56 59 42
56 59 41
56 59 40
56 59 40
56 59 40
56 59 40
55 59 40
55 60 40
56 61 41
58 63 43
62 67 45
65 70 48
67 72 50
69 74 52
70 75 55
72 77 57
74 79 59
76 81 61
78 83 63
80 85 65
82 87 67
84 89 69
88 91 70
89 92 71
91 94 73
92 95 74
93 96 75
94 97 76
95 97 77
95 98 77
95 99 76
96 100 77
96 100 75
97 101 76
98 102 77
99 103 78
99 103 78
99 103 78
99 103 79
100 104 78
101 105 77
101 105 78
102 106 79
58 59 43
58 59 43
58 59 43
57 59 43
56 59 42
55 58 41
54 57 40
53 56 39
53 56 39
54 57 40
54 57 38
54 57 38
54 57 38
55 59 39
55 61 40
58 63 42
60 65 45
64 69 48
67 72 50
68 73 52
70 75 54
72 77 57
74 79 59
76 81 61
78 83 63
80 85 66
82 87 67
83 88 68
86 91 71
88 91 71
89 92 71
90 93 72
91 94 73
92 95 74
93 96 75
93 96 75
94 97 75
94 98 75
94 98 75
94 98 74
95 99 74
96 100 75
97 101 76
98 102 77
98 102 77
98 102 77
99 103 77
99 103 76
101 105 78
102 106 79
57 58 42
56 57 41
56 57 41
56 58 42
55 59 41
54 57 40
53 56 39
52 55 38
52 55 37
52 55 38
53 56 38
54 57 39
54 57 39
55 59 41
57 62 43
60 65 46
63 68 49
66 70 51
67 72 52
68 73 53
70 75 55
72 77 57
74 79 59
76 81 60
78 83 63
80 85 65
82 87 67
83 88 68
85 91 70
87 91 71
88 91 70
90 93 71
91 94 73
92 95 74
92 95 74
93 96 75
93 96 75
93 97 74
93 97 74
93 97 73
95 99 74
96 100 75
97 101 76
97 101 76
98 102 77
98 102 77
98 102 76
99 103 75
100 104 77
101 105 78
57 56 39
57 56 39
57 56 40
56 56 40
55 57 41
55 56 41
53 54 39
51 53 38
51 53 38
51 54 38
52 55 38
53 56 39
54 57 40
57 60 43
59 63 46
61 65 48
64 68 52
67 71 53
67 71 53
68 72 54
69 73 55
71 76 57
73 78 60
75 79 61
77 81 63
79 83 65
80 85 67
82 87 69
84 89 71
87 91 72
88 91 71
88 91 72
89 92 72
90 93 72
90 93 72
91 95 72
91 95 72
92 96 72
92 96 71
93 97 72
94 98 73
94 98 73
95 99 74
95 99 74
96 100 75
96 100 75
97 101 75
98 102 75
99 103 76
100 104 77
56 55 37
56 55 36
56 54 38
55 54 39
53 55 40
53 54 40
52 53 39
50 52 38
50 52 38
50 52 38
51 53 38
53 55 40
55 57 42
58 60 45
61 63 48
62 66 50
64 68 53
66 70 55
67 71 55
67 71 56
68 72 56
70 74 58
72 76 60
74 78 61
76 80 63
78 82 65
79 83 66
80 84 67
82 86 69
85 88 71
86 89 70
86 89 70
87 90 70
87 90 69
87 91 69
88 92 69
88 92 69
88 92 69
90 94 69
91 95 70
91 95 70
92 96 71
92 96 71
92 96 71
93 97 72
94 98 74
96 100 74
97 101 74
98 102 75
99 103 76
55 54 36
54 53 35
54 52 36
51 51 36
50 51 36
50 51 37
49 50 36
48 50 36
48 50 36
50 52 38
51 53 39
54 56 42
56 58 44
58 60 46
61 63 49
62 66 51
64 68 53
65 69 54
66 70 55
66 70 56
66 70 55
70 74 56
72 76 59
73 77 60
75 79 62
76 80 63
77 81 64
78 82 65
81 85 68
82 85 69
83 86 68
83 86 67
84 87 67
85 88 66
85 89 67
86 90 67
86 90 67
87 91 67
87 91 67
88 92 67
89 93 68
90 94 69
91 95 70
91 95 70
92 96 71
94 98 73
95 99 73
96 100 73
97 101 74
98 102 75
54 52 37
52 50 35
51 49 34
48 48 34
47 48 34
47 48 34
46 47 33
47 48 34
48 49 35
49 51 37
51 53 39
54 57 42
57 59 45
59 61 47
61 63 49
63 65 51
64 67 52
64 68 53
65 69 54
66 70 55
66 71 55
69 73 56
71 75 58
73 77 60
74 78 61
75 79 62
76 80 63
77 81 64
78 82 65
80 83 66
81 83 65
81 84 65
82 85 65
82 85 64
83 86 65
84 88 65
84 88 65
84 88 65
85 89 64
86 90 65
87 91 66
88 92 67
89 93 68
90 94 69
91 95 70
92 96 71
93 97 71
94 98 70
95 99 72
95 99 72
53 51 35
51 49 34
50 48 33
47 46 32
45 46 32
46 47 33
45 46 32
47 48 34
48 49 35
50 52 38
52 55 41
55 57 43
57 59 45
59 61 47
60 62 48
62 64 50
63 65 51
64 66 52
64 68 53
66 69 55
66 70 54
68 72 55
70 74 57
71 75 58
72 76 59
73 77 60
73 77 60
74 78 61
75 79 62
77 80 63
78 81 62
78 81 62
79 82 62
79 82 61
80 84 62
81 85 62
82 86 63
82 86 63
82 86 61
84 88 63
85 89 64
86 90 65
87 91 66
88 92 67
89 93 68
90 94 69
90 94 68
91 95 67
91 95 68
92 96 69
54 50 36
52 49 35
50 48 34
49 46 33
47 47 33
47 48 34
47 48 34
49 50 36
50 51 37
52 53 39
54 55 41
55 57 43
56 58 44
58 60 46
59 61 47
60 62 48
61 63 49
63 65 51
64 66 52
65 67 53
65 68 53
66 70 53
68 72 55
69 73 56
69 73 56
70 74 57
71 75 58
71 75 58
72 76 59
73 76 59
74 77 58
74 77 58
75 78 58
76 79 58
77 81 59
78 82 59
79 83 60
79 83 60
79 83 58
81 85 60
83 87 62
83 87 62
84 88 63
85 89 64
86 90 65
86 90 65
87 91 65
87 91 64
88 92 65
89 93 66
54 50 38
53 49 38
51 48 36
50 48 35
49 49 35
49 50 36
50 51 37
51 52 38
52 53 39
54 55 41
55 56 42
55 57 43
55 57 43
55 58 43
57 59 45
57 59 45
59 61 47
61 63 49
62 64 50
63 65 51
64 66 51
64 68 51
66 70 53
66 71 53
67 71 54
68 72 55
68 72 55
69 73 56
69 73 56
70 73 56
70 73 55
71 74 55
72 75 55
73 76 55
75 78 56
76 80 57
77 81 58
76 80 57
77 81 56
79 83 58
80 84 59
81 85 60
82 86 61
83 87 62
83 87 62
84 88 63
84 88 62
84 88 61
84 88 61
85 89 62
56 52 40
56 52 40
53 51 38
53 51 38
53 52 39
52 54 39
53 54 40
53 54 40
54 55 41
55 56 42
55 56 42
55 56 42
55 56 42
55 56 42
55 57 43
56 58 44
58 60 46
59 61 47
60 62 48
62 64 50
63 65 51
63 65 50
64 66 51
65 67 53
66 69 54
67 69 55
68 70 55
68 70 55
68 71 56
69 71 57
69 72 55
70 73 55
70 73 55
71 74 55
72 76 55
74 77 55
75 79 57
77 80 58
77 81 58
78 82 59
79 83 60
79 83 60
80 84 60
80 84 61
81 85 61
81 85 62
81 85 61
81 85 60
83 87 61
83 87 62
58 54 42
58 54 42
57 53 41
56 54 41
56 54 42
57 55 43
57 55 43
55 55 43
55 56 43
55 55 43
55 55 43
55 55 43
55 55 43
55 55 43
56 57 44
56 58 45
57 59 46
59 61 47
59 61 48
60 62 49
62 64 50
62 64 50
63 65 51
64 66 52
65 67 53
66 67 54
66 67 54
66 68 54
66 68 54
66 68 55
67 70 54
68 71 54
68 71 53
69 72 53
71 74 54
72 75 54
74 77 56
76 79 58
76 80 57
77 81 58
77 81 58
77 81 58
77 81 58
78 82 59
78 82 59
78 82 59
78 82 58
79 83 58
80 84 59
80 84 60
60 55 43
59 55 43
60 55 43
59 56 44
59 57 45
59 57 45
59 57 45
57 57 45
57 57 45
56 56 44
56 56 44
55 55 43
56 56 44
56 56 44
57 57 45
57 58 46
58 60 47
59 61 48
59 61 48
60 62 49
61 63 50
62 64 50
63 65 51
63 65 51
64 66 52
64 66 52
64 66 51
63 65 51
63 65 51
63 65 51
64 66 51
65 68 51
66 69 51
67 70 50
68 71 52
70 73 52
72 75 54
74 77 56
75 79 56
76 80 57
76 80 57
76 80 57
75 79 56
75 79 56
75 79 56
75 79 56
75 79 55
75 79 54
76 80 55
77 81 56
61 57 45
60 57 45
61 57 45
60 58 45
61 59 47
61 59 47
61 59 47
61 59 47
60 58 46
58 57 45
57 57 45
57 57 45
57 57 45
58 58 46
58 58 46
58 58 46
60 60 48
60 61 48
59 62 48
60 62 49
61 63 49
61 63 49
62 64 50
63 65 51
63 65 51
64 66 52
63 65 51
63 65 51
63 65 51
61 63 49
61 64 48
62 65 48
63 66 48
64 67 48
66 69 49
67 70 49
69 72 51
71 74 53
74 78 55
74 78 55
74 78 55
74 78 55
74 78 55
73 77 54
73 77 54
72 76 53
71 75 52
71 75 50
73 77 52
73 77 52
64 59 47
64 59 47
63 59 47
63 60 48
63 60 49
63 61 49
63 61 49
62 61 49
62 60 48
61 59 47
59 59 47
59 59 47
58 58 46
58 58 46
58 58 46
59 59 47
59 59 47
59 60 47
59 60 48
60 61 49
61 62 49
61 63 49
61 63 49
62 64 50
63 65 51
64 66 52
64 66 52
63 65 51
63 65 51
62 64 51
62 65 49
63 66 49
63 66 48
63 66 47
65 68 48
66 69 48
68 71 50
69 73 51
71 75 52
72 76 53
72 76 53
71 75 52
71 75 52
71 75 52
70 74 51
70 74 51
70 74 50
70 74 49
70 74 49
71 75 50
69 63 51
69 63 51
67 63 51
67 63 51
66 63 52
65 64 52
66 64 52
65 63 51
64 62 50
64 62 50
62 61 49
60 60 48
59 59 47
58 58 46
57 57 45
57 57 45
57 57 45
58 58 46
59 59 47
60 60 48
61 61 49
60 62 48
61 63 49
61 63 49
62 64 50
62 64 50
62 64 50
62 64 50
62 64 50
62 64 50
63 65 50
63 66 49
63 66 48
63 66 47
64 67 47
65 68 47
66 69 48
68 71 49
68 72 49
69 73 50
69 73 50
69 73 50
69 73 50
69 73 50
69 73 50
69 73 50
69 73 49
69 73 48
70 74 49
71 75 50
72 66 54
72 66 54
71 66 54
69 65 54
69 66 54
68 66 54
67 65 53
67 65 53
66 64 52
65 63 51
64 62 50
63 61 49
61 60 48
59 58 46
58 57 45
57 55 43
57 56 44
58 57 45
59 58 46
61 59 48
61 60 48
60 62 47
62 63 49
62 63 49
61 62 48
61 62 48
61 62 48
60 61 47
60 61 47
59 61 47
60 63 47
61 64 47
61 64 46
61 64 45
62 65 45
62 65 44
63 67 46
64 67 46
66 69 47
66 69 48
67 70 48
67 70 48
67 70 49
67 71 49
68 72 49
68 72 49
69 73 50
70 74 51
71 75 52
71 75 51
74 66 55
74 66 56
73 66 56
72 66 55
71 66 56
70 67 57
69 66 54
69 65 54
68 64 53
68 65 54
67 63 52
64 62 50
62 60 48
60 58 46
59 57 44
58 56 43
59 56 44
59 56 44
58 56 44
59 56 43
58 57 44
57 58 44
56 57 43
57 58 44
58 59 45
58 59 45
59 59 45
59 60 46
59 60 46
60 61 46
60 61 44
60 61 43
60 61 43
60 62 44
61 62 44
62 63 45
64 65 46
64 66 47
65 68 47
66 69 48
67 70 49
67 70 49
68 71 50
69 72 51
69 72 51
69 72 51
70 73 51
71 75 52
72 76 53
72 76 54
75 66 57
75 66 57
74 66 57
75 68 58
73 67 58
71 67 57
70 66 55
69 65 54
69 64 54
68 64 53
66 62 51
65 61 50
63 59 48
61 57 45
60 56 44
59 55 43
59 55 43
58 54 42
58 55 42
57 53 40
56 53 40
55 54 41
56 54 41
56 55 42
57 55 42
58 56 43
59 57 44
60 58 45
60 58 44
59 59 44
59 60 43
59 60 42
59 60 42
60 61 43
61 62 44
63 64 46
65 66 48
66 67 49
66 69 50
68 71 52
69 72 53
70 73 54
71 74 55
72 75 54
72 75 54
71 74 54
72 75 54
74 77 55
74 77 56
74 77 56
75 66 57
74 65 56
73 66 55
74 67 56
73 67 56
71 67 55
70 65 54
67 63 52
67 63 52
66 62 51
65 61 49
63 59 48
62 58 46
60 57 44
59 56 43
59 55 42
58 55 42
57 54 40
57 54 39
56 53 38
56 53 38
55 53 40
56 53 40
56 54 40
57 55 41
58 56 42
59 56 43
59 57 43
60 57 43
59 58 42
58 59 42
59 60 41
59 60 42
61 62 44
62 63 45
64 65 47
65 66 48
67 68 50
68 71 52
70 73 54
71 74 55
72 75 56
73 76 57
74 77 57
75 78 56
75 78 57
75 78 57
75 78 57
74 77 56
74 77 56
74 66 54
72 64 53
71 64 53
71 66 53
71 66 54
69 66 54
67 64 52
66 62 50
65 61 49
65 61 48
64 60 47
63 60 46
62 59 46
61 58 43
60 58 42
60 57 42
59 57 42
59 56 41
59 56 41
59 56 41
59 56 41
59 56 41
59 56 41
59 56 41
60 57 42
61 58 43
62 59 44
63 60 45
62 60 45
62 60 43
61 62 43
61 62 44
62 63 45
64 65 47
65 66 48
66 67 49
67 68 50
68 69 51
70 73 54
71 74 55
73 76 57
73 76 57
75 78 59
76 79 59
77 80 59
77 80 59
76 79 58
75 78 57
75 78 57
75 78 57
73 66 52
71 63 51
70 62 50
70 63 50
70 64 51
68 63 50
67 62 49
66 61 48
65 60 47
65 61 46
65 60 45
64 60 45
65 60 44
64 59 44
64 59 43
63 58 43
63 58 43
63 58 42
63 58 42
62 58 42
63 58 42
63 58 42
63 58 43
63 59 43
64 60 44
65 60 45
66 61 45
66 62 46
66 62 47
65 64 46
64 65 47
64 65 47
66 67 49
67 68 50
68 69 51
69 70 52
70 70 53
71 72 54
72 75 56
73 76 57
74 77 58
75 78 59
77 80 61
79 82 61
79 82 61
79 82 61
77 80 59
77 80 59
76 79 58
76 78 58
75 68 52
72 64 51
71 63 50
70 64 49
70 64 48
69 63 48
68 62 47
68 62 46
67 61 46
68 61 46
67 61 46
67 61 46
67 61 45
67 61 45
67 60 44
66 60 44
66 60 44
66 60 44
66 60 44
66 60 44
66 60 44
66 60 44
66 60 44
67 61 45
68 62 46
69 62 46
69 63 47
70 64 48
69 65 48
68 66 48
67 67 49
67 68 50
69 70 52
71 72 54
72 73 55
73 74 56
74 75 57
75 76 58
75 78 59
76 79 60
76 79 60
77 80 61
80 83 64
81 84 63
81 84 63
80 83 62
79 82 61
78 81 60
78 81 60
78 81 60
76 69 53
75 67 52
73 66 50
72 66 50
71 66 49
71 66 47
71 66 48
70 65 46
70 65 46
70 65 46
70 64 46
70 65 46
70 64 46
69 64 46
69 64 46
69 64 46
70 64 46
69 64 45
69 64 45
69 64 45
68 63 45
68 62 46
68 62 46
69 63 47
69 64 48
70 64 48
71 65 49
72 66 50
71 67 50
69 68 50
70 69 51
72 71 53
73 73 55
76 75 57
77 77 59
79 78 60
79 78 60
78 79 61
78 79 61
79 80 62
80 81 63
80 82 63
82 83 65
82 84 64
82 84 63
82 84 63
81 83 62
81 83 62
80 83 62
80 82 61
79 70 53
77 68 52
75 67 52
75 68 51
74 68 50
73 68 49
73 68 49
73 68 49
72 67 48
72 67 48
72 66 47
71 66 47
71 66 47
72 66 47
72 66 47
72 67 48
72 67 48
72 67 48
72 67 48
72 66 47
71 65 47
70 64 49
70 64 48
70 64 48
71 65 49
72 66 50
73 67 51
74 68 52
75 69 53
74 70 53
74 72 54
75 74 56
77 76 58
80 79 61
82 80 63
83 81 64
83 82 64
83 82 64
83 82 64
82 82 64
82 83 65
83 84 66
83 83 66
83 85 64
83 85 64
82 84 63
82 84 63
83 84 63
83 85 64
83 85 64
82 73 56
81 72 55
79 70 53
78 70 52
77 70 51
76 69 50
77 70 51
76 69 50
75 68 49
74 67 48
74 67 48
73 66 48
73 66 48
74 67 48
74 67 49
75 68 50
75 68 50
75 68 50
75 68 50
74 67 49
73 66 49
72 66 50
72 66 50
73 67 51
74 68 52
75 69 53
76 70 54
77 71 55
77 70 54
76 72 55
76 73 56
78 75 58
80 77 60
83 80 63
85 82 65
86 83 66
86 84 67
86 85 67
86 85 67
85 85 67
85 86 68
85 86 68
84 85 67
84 85 65
83 85 64
83 85 64
83 85 64
84 86 65
85 87 66
85 87 66
86 77 59
84 75 58
83 74 57
82 74 56
81 74 54
81 73 54
80 73 54
78 71 52
77 70 51
76 69 50
75 68 49
74 67 48
74 67 48
75 68 49
76 69 51
77 70 52
77 70 52
77 70 52
76 69 51
76 69 51
75 68 51
73 67 51
74 68 52
76 70 54
78 72 56
79 73 57
79 73 57
79 73 57
80 73 57
78 74 57
78 75 58
80 77 60
82 79 62
85 82 65
87 84 67
88 85 68
89 86 69
89 88 70
90 89 71
88 89 71
88 89 71
87 88 70
86 87 70
84 86 66
83 85 64
83 85 64
84 86 65
85 87 66
87 89 68
87 89 68
88 80 61
87 78 60
86 77 59
84 76 58
83 76 57
83 76 57
82 75 56
80 74 55
79 72 53
77 70 51
76 69 50
75 68 49
76 69 50
76 69 50
77 70 52
77 70 52
78 71 53
78 71 53
78 71 53
78 71 53
77 71 53
76 71 55
78 72 56
80 74 58
82 76 60
83 77 61
83 77 61
83 77 61
83 77 61
81 77 60
80 78 60
82 79 62
85 82 65
87 84 67
89 86 69
91 88 71
92 89 72
91 90 72
92 91 73
90 91 73
90 91 73
89 90 72
87 88 70
85 87 67
84 86 65
84 86 65
84 86 65
86 88 67
87 89 68
89 91 70
89 81 60
87 79 59
86 78 57
85 77 57
84 77 57
84 76 56
83 75 55
82 74 55
81 73 54
79 71 52
78 70 51
77 69 51
77 70 51
78 70 52
78 70 52
79 71 53
79 71 53
79 71 53
80 71 54
80 72 55
80 73 56
81 74 59
81 75 59
83 77 61
84 78 62
86 80 64
86 80 64
85 79 63
85 79 63
83 79 62
83 80 63
84 81 64
87 84 67
89 86 69
90 87 70
92 89 72
92 90 73
92 91 73
92 91 73
90 91 73
90 91 73
89 90 72
87 88 71
86 88 68
85 87 66
86 88 67
86 88 67
88 90 69
90 92 71
91 93 72
90 82 61
89 81 60
88 80 59
87 79 58
85 77 56
84 76 55
84 76 56
83 75 57
82 75 55
82 74 55
81 73 54
80 72 53
80 72 53
81 72 55
81 72 55
81 72 55
82 73 56
82 73 56
83 74 57
84 75 58
84 77 60
85 78 62
85 79 63
86 80 64
86 80 64
87 81 65
87 81 65
87 81 65
87 81 65
86 82 65
86 83 66
87 84 67
89 86 69
90 87 70
92 89 72
93 90 73
93 90 73
92 91 73
92 91 73
91 91 73
90 91 73
90 91 73
90 91 73
89 91 71
89 91 70
89 91 70
90 92 71
91 93 72
93 95 74
95 97 76
94 85 63
91 83 62
90 82 61
89 81 60
87 79 58
86 78 57
86 78 57
86 78 59
85 77 58
85 77 57
85 76 57
84 76 57
83 75 56
83 75 57
84 75 58
83 74 57
84 75 58
86 77 60
88 78 61
89 81 63
89 82 65
89 83 66
89 83 67
89 83 67
89 83 67
89 83 67
89 83 67
89 83 67
90 84 68
90 85 68
91 85 69
91 87 70
92 89 72
93 90 73
94 91 74
95 91 74
95 91 74
94 92 74
94 92 75
94 93 75
94 93 75
93 93 74
93 93 74
93 93 73
94 94 73
95 94 74
95 96 75
95 97 76
96 98 77
98 100 79
97 86 63
94 83 61
92 81 59
92 81 61
92 81 61
91 80 60
90 79 59
89 78 58
89 78 58
89 79 59
90 79 59
90 79 61
88 80 61
88 79 62
88 79 62
89 80 63
90 81 64
91 82 65
93 84 67
94 85 68
95 86 69
94 86 69
95 88 70
95 88 70
95 88 70
94 87 69
93 86 68
93 86 69
93 86 70
93 87 71
94 88 72
95 89 73
95 90 73
97 91 75
97 91 75
98 92 76
98 92 76
96 93 76
96 93 76
95 94 74
96 94 74
96 94 75
97 95 75
98 96 76
99 97 78
100 99 79
101 100 80
102 101 81
101 103 82
102 103 83
99 88 66
97 85 64
95 84 61
94 83 62
93 82 62
92 81 61
91 80 60
91 80 60
91 80 60
92 81 61
93 82 62
95 84 66
94 85 67
94 86 68
95 86 69
96 87 70
96 87 70
96 87 70
96 87 70
96 87 70
97 87 70
97 88 71
97 90 72
97 91 73
98 91 73
97 90 72
96 89 71
96 89 71
96 89 73
97 90 74
97 90 74
96 90 74
96 90 74
97 91 75
97 91 75
97 91 75
98 92 76
98 92 76
97 94 75
97 94 75
98 95 76
98 95 76
99 96 77
100 97 78
102 99 80
104 100 82
104 102 83
105 104 84
106 105 85
106 106 85
101 91 67
99 88 66
98 87 65
97 87 66
97 86 66
96 85 65
95 84 64
95 84 64
96 85 65
97 86 66
99 88 68
100 89 71
101 93 74
101 92 75
101 92 75
101 92 75
101 92 75
100 91 74
98 89 72
97 88 71
98 89 72
98 90 72
99 91 73
100 92 74
100 93 75
99 92 74
99 92 74
100 93 74
100 93 77
100 93 77
100 93 77
99 92 76
97 91 75
97 91 75
97 91 75
98 92 76
98 92 76
99 93 77
98 95 76
99 96 77
99 96 77
100 97 78
101 98 79
103 100 81
105 102 83
106 103 84
107 105 85
108 106 86
109 107 87
109 107 88
104 94 69
103 92 69
102 91 69
101 90 69
100 89 69
99 88 68
99 88 68
100 89 69
101 90 70
102 91 71
104 93 73
106 95 77
106 98 79
106 97 80
105 96 79
105 96 79
103 94 77
103 94 77
102 93 76
102 93 76
101 92 75
102 93 76
102 93 76
103 94 77
102 94 77
102 95 77
102 95 77
102 95 77
103 96 79
103 96 80
102 96 80
101 94 78
100 93 77
99 92 76
99 93 77
100 94 78
101 95 79
101 96 79
100 97 78
101 98 79
101 98 79
102 99 80
104 101 82
106 103 84
108 105 86
109 106 87
110 107 88
110 107 88
111 108 89
111 108 89
107 97 72
106 95 72
105 94 72
104 93 72
103 92 72
102 91 71
102 91 71
102 91 71
103 92 72
105 94 74
107 96 76
108 98 79
109 100 81
109 100 83
108 99 82
106 97 80
106 97 80
105 96 79
105 96 79
105 96 79
105 96 79
105 96 79
105 96 79
105 96 79
105 96 79
104 96 78
104 96 78
104 97 79
104 97 79
104 97 80
103 96 80
101 94 79
101 94 78
100 93 77
100 94 78
101 95 79
102 96 80
103 97 81
102 99 80
102 99 80
103 100 81
104 101 82
106 103 84
108 105 86
111 108 89
112 109 90
113 109 90
114 109 90
114 110 91
114 110 91
110 100 75
109 98 76
108 97 75
107 97 76
107 96 76
106 95 75
106 95 75
106 95 75
107 96 76
108 97 77
110 99 79
111 100 82
111 103 84
111 102 85
110 101 84
110 101 84
109 100 83
108 100 82
108 99 82
108 99 82
108 99 82
108 99 81
108 99 81
108 99 82
107 98 81
107 98 81
106 97 80
106 99 81
106 99 81
106 99 81
105 98 81
104 97 81
102 95 79
102 95 79
103 96 80
104 97 81
105 98 82
105 99 83
105 101 82
104 101 82
105 102 83
107 104 85
109 106 87
111 108 89
114 111 92
115 112 93
117 113 93
117 112 93
118 113 94
118 113 94
112 102 77
112 101 78
112 101 78
111 100 79
111 100 80
111 100 79
111 99 79
111 99 79
111 100 80
112 101 81
114 103 82
114 103 83
114 105 86
114 106 87
114 106 87
114 106 87
114 105 87
113 104 86
112 103 84
111 102 84
110 102 83
110 102 83
110 102 84
110 102 83
109 101 83
109 100 83
108 99 83
109 100 83
109 101 84
109 102 84
108 101 83
107 100 82
106 99 81
105 98 82
106 99 83
107 100 84
107 101 85
108 101 85
108 102 84
108 103 85
109 104 86
111 106 87
113 108 90
116 111 92
118 113 95
120 115 97
121 116 98
122 116 98
121 116 98
121 116 97
114 105 80
114 104 79
114 103 80
114 103 80
114 102 80
115 103 81
115 103 81
116 104 82
116 104 82
117 105 83
117 105 83
118 105 85
118 107 87
119 107 89
119 108 90
119 108 90
119 107 89
117 106 87
115 104 85
114 103 84
114 104 85
113 105 86
113 105 86
113 105 86
112 104 85
111 102 84
110 101 84
110 101 84
111 102 85
110 102 85
109 102 84
108 101 83
107 100 82
107 100 82
108 101 84
108 101 85
109 102 85
110 103 87
111 104 88
111 105 89
113 106 90
114 108 92
116 110 94
118 112 96
120 114 98
123 116 100
124 117 101
125 118 102
125 118 102
124 117 101
116 106 81
116 106 81
116 106 80
117 105 82
117 105 83
117 105 83
118 106 84
119 107 85
120 108 86
120 108 86
121 109 87
121 109 87
121 110 90
121 110 90
122 111 91
122 111 91
120 109 89
119 108 87
116 105 85
116 105 85
116 106 86
116 107 88
116 108 89
115 108 88
114 107 87
113 105 86
112 104 85
112 103 85
112 103 86
112 103 86
111 102 85
110 102 85
109 102 84
109 102 84
109 102 84
110 103 85
110 103 85
111 104 87
113 106 90
114 107 91
116 109 93
117 110 94
118 111 95
120 113 97
122 115 99
124 117 101
125 118 102
125 118 102
125 118 102
125 118 102
116 106 81
116 106 81
117 107 81
118 107 84
119 107 85
120 108 86
121 109 87
122 110 88
123 111 89
124 112 90
124 112 90
125 113 91
124 113 93
124 113 93
124 113 93
123 112 93
123 112 92
120 109 89
118 107 87
118 107 86
118 107 87
118 107 89
118 108 90
118 108 90
117 107 89
115 107 88
114 106 87
114 106 86
114 105 87
114 105 88
114 105 88
113 105 87
113 104 87
112 105 87
113 106 88
113 106 88
113 106 88
114 107 89
115 108 92
116 109 93
118 111 95
119 112 96
120 113 97
122 115 99
124 117 101
124 117 101
124 117 101
125 118 102
125 118 102
126 119 103
116 106 81
116 106 81
116 107 81
118 107 84
120 108 86
121 109 87
122 110 88
124 112 90
125 113 91
126 114 92
127 115 93
128 116 94
126 115 95
126 115 95
126 115 95
126 115 95
124 113 93
121 110 90
120 109 89
119 108 88
118 107 88
118 107 89
118 107 89
118 107 89
118 107 89
117 107 88
115 107 88
115 107 88
116 108 88
116 107 89
116 107 90
115 106 89
115 106 89
115 106 89
114 107 89
115 108 90
115 108 90
115 108 90
116 109 93
118 111 95
119 112 96
120 113 97
121 114 98
123 116 100
124 117 101
125 118 102
125 118 102
125 118 102
125 118 102
126 119 103
116 106 81
116 106 81
116 107 81
118 107 84
120 108 86
121 109 87
123 111 89
125 113 91
126 114 93
128 116 94
129 117 95
130 118 96
128 117 97
128 117 97
127 116 96
127 116 96
125 114 94
123 112 92
121 110 90
120 109 89
120 109 90
119 108 90
119 108 90
120 109 91
120 109 91
120 109 91
119 108 90
118 109 90
117 109 90
117 109 90
117 108 91
116 107 90
115 106 89
115 106 89
115 107 90
114 108 90
114 108 89
115 108 90
116 109 93
118 111 95
120 112 96
121 114 98
123 116 100
124 117 101
124 117 101
125 118 102
125 118 102
125 118 102
125 118 102
126 119 103
